<?xml version="1.0" encoding="UTF-8"?>
<svg width="361px" height="361px" viewBox="0 0 361 361" version="1.1" xmlns="http://www.w3.org/2000/svg" xmlns:xlink="http://www.w3.org/1999/xlink">
    <!-- Generator: Sketch 55.2 (78181) - https://sketchapp.com -->
    <title>icon</title>
    <desc>Created with Sketch.</desc>
    <defs>
        <linearGradient x1="50%" y1="0%" x2="50%" y2="100%" id="linearGradient-1">
            <stop stop-color="#FFFFFF" offset="0%"></stop>
            <stop stop-color="#BEBEBE" offset="100%"></stop>
        </linearGradient>
        <circle id="path-2" cx="180.5" cy="180.5" r="158.5"></circle>
        <filter x="-3.5%" y="-2.5%" width="106.9%" height="106.9%" filterUnits="objectBoundingBox" id="filter-3">
            <feMorphology radius="1" operator="dilate" in="SourceAlpha" result="shadowSpreadOuter1"></feMorphology>
            <feOffset dx="0" dy="3" in="shadowSpreadOuter1" result="shadowOffsetOuter1"></feOffset>
            <feGaussianBlur stdDeviation="2.5" in="shadowOffsetOuter1" result="shadowBlurOuter1"></feGaussianBlur>
            <feComposite in="shadowBlurOuter1" in2="SourceAlpha" operator="out" result="shadowBlurOuter1"></feComposite>
            <feColorMatrix values="0 0 0 0 0   0 0 0 0 0   0 0 0 0 0  0 0 0 0.399399909 0" type="matrix" in="shadowBlurOuter1"></feColorMatrix>
        </filter>
    </defs>
    <g id="icon" stroke="none" stroke-width="1" fill="none" fill-rule="evenodd">
        <g id="plate">
            <use fill="black" fill-opacity="1" filter="url(#filter-3)" xlink:href="#path-2"></use>
            <use fill="url(#linearGradient-1)" fill-rule="evenodd" xlink:href="#path-2"></use>
            <use stroke-opacity="0.399093094" stroke="#000000" stroke-width="1" fill="#FFFFFF" fill-rule="evenodd" xlink:href="#path-2"></use>
        </g>
        <g id="petals" transform="translate(180.500000, 183.000000) rotate(0.400000) translate(-180.500000, -183.000000) translate(42.000000, 63.000000)" stroke="#FFFFFF" stroke-width="12">
            <path d="M209.218898,0.390778155 C225.513752,31.4171369 229.01702,61.0961375 216.113496,83.7046362 C203.008795,106.664354 175.196637,118.453761 139.703512,119.390407 C123.408658,88.3640488 119.90539,58.6850481 132.808914,36.0765495 C145.913615,13.1168318 173.725773,1.32742504 209.218898,0.390778155 Z" id="Combined-Shape-Copy-2" fill="#A85050"></path>
            <path d="M276.03261,119.188876 C257.292304,149.342505 233.010754,167.530712 206.478293,167.522082 C180.451319,167.513614 156.579023,149.996469 137.971033,120.85467 C156.711338,90.70104 180.992889,72.5128321 207.52535,72.5214605 C233.552324,72.5299301 257.424619,90.0470761 276.03261,119.188876 Z" id="Combined-Shape-Copy-5" fill="#BCA64C"></path>
            <path d="M139.695703,119.394657 C174.957121,120.684178 202.598137,132.599702 215.761172,155.42591 C228.924201,178.252122 225.410557,208.176232 208.895277,239.394667 C173.633859,238.105146 145.992843,226.189622 132.829808,203.363414 C119.666779,180.537202 123.180423,150.613092 139.695703,119.394657 Z" id="Combined-Shape-Copy-4" fill="#829C53"></path>
            <path d="M138.628385,117.883367 C154.411611,148.462532 157.679399,177.77931 144.923766,200.196367 C131.96893,222.961478 104.67668,234.765262 69.9241188,235.88348 C54.1408934,205.304314 50.8731048,175.987536 63.6287378,153.57048 C76.5835744,130.805369 103.875824,119.001584 138.628385,117.883367 Z" id="Combined-Shape-Copy-3" fill="#79CCBB"></path>
            <path d="M0.36632752,119.724438 C18.9924662,89.0734281 43.3272172,70.7092114 70.1074241,70.9731728 C96.3442264,71.2317782 120.577376,89.3273678 139.62304,119.235174 C120.996902,149.88678 96.6621548,168.251817 69.881952,167.989109 C43.6451458,167.729272 19.4119928,149.632856 0.36632752,119.724438 Z" id="Combined-Shape" fill="#6C8EDD"></path>
            <path d="M139.66971,26.9210501 C137.143927,29.8025634 134.906759,32.9185307 132.980053,36.26977 C120.026724,58.8004705 123.260744,88.2179683 139.148075,118.872497 C139.370619,118.864859 139.592862,118.856792 139.814802,118.848295 C139.801961,118.87259 139.789112,118.896885 139.776254,118.921181 C105.081321,117.641545 77.8807002,105.917626 64.9216272,83.4718532 C51.9625543,61.0260804 55.4096529,31.6076928 71.6489225,0.921180791 C101.09651,2.00728151 125.145273,10.6173329 139.669711,26.9210519 Z" id="Combined-Shape" fill="#9D5ED4"></path>
        </g>
    </g>
</svg>